<svg width="1960.78" height="476.65" xmlns="http://www.w3.org/2000/svg">
 <defs>
  <filter id="svg_8_blur">
   <feGaussianBlur stdDeviation="0" in="SourceGraphic"/>
  </filter>
 </defs>
 <g>
  <title>Layer 1</title>
  <g id="svg_10">
   <g stroke="null" id="Layer_1-2">
    <g stroke="null" isolation="isolate" class="cls-2" id="DNollK">
     <g stroke="null" id="svg_1" isolation="isolate" class="cls-2">
      <path stroke="null" id="svg_2" fill="#fff" d="m248.88888,245.63836c0,67.3183 -58.88525,121.80002 -131.19899,121.80002l-110.6899,0l0,-244.63641l74.54007,0l36.14982,0.34764c72.30669,0 131.19899,54.82936 131.19899,122.49531l0,-0.00656zm-167.34881,50.31655c57.77208,6.59212 82.36749,-18.73998 82.36749,-50.31655c0,-26.02738 -23.48224,-56.90866 -82.36749,-50.31655l0,100.63309z" class="cls-1"/>
      <path stroke="null" id="svg_3" fill="#fff" d="m504.57261,406.65l-162.50159,-141.22872l0,102.01711l-74.54007,0l0,-273.43838l161.76183,139.49706l0.74681,-110.69509l74.54007,0l0,283.84802l-0.00705,0z" class="cls-1"/>
      <path stroke="null" id="svg_4" fill="#fff" d="m530.66163,247.37658c0,-71.83112 62.6193,-132.5573 139.76616,-132.5573s140.13957,60.72619 140.13957,132.5573s-62.6193,130.47144 -140.13957,130.47144s-139.76616,-58.64688 -139.76616,-130.47144zm74.54007,0c0,33.66243 29.44262,61.07383 65.22609,61.07383s65.59949,-27.4114 65.59949,-61.07383s-29.44262,-63.15314 -65.59949,-63.15314s-65.22609,29.49726 -65.22609,63.15314z" class="cls-1"/>
      <path stroke="null" id="svg_5" fill="#fff" d="m1008.10561,298.38186l0,69.05652l-178.90322,0l0,-244.63641l74.54007,0l0,175.58644l104.36315,0l0,-0.00656z" class="cls-1"/>
      <path stroke="null" id="svg_6" fill="#fff" d="m1213.09786,298.38186l0,69.05652l-178.90322,0l0,-244.63641l74.54007,0l0,175.58644l104.36315,0l0,-0.00656z" class="cls-1"/>
      <path stroke="null" id="svg_7" fill="#fff" d="m1313.72696,367.43838l-74.54007,0l0,-244.63641l74.54007,0l0,89.52816l101.00955,-94.04097l47.33788,44.07207l-75.28688,70.44054l101.00251,134.63661l-90.5683,0l-64.10587,-84.66771l-19.38183,18.04469l0,66.62302l-0.00705,0z" class="cls-1"/>
     </g>
    </g>
   </g>
   <text filter="url(#svg_8_blur)" xml:space="preserve" text-anchor="start" font-family="'Stick No Bills'" font-size="250" id="svg_8" y="332.675" x="1583" stroke-width="0" stroke="#000" fill="#ffffff">ASP</text>
   <line transform="rotate(-5.00156 1518.11 238.175)" stroke-width="13" id="svg_9" y2="242.675" x2="1567.60999" y1="233.675" x1="1468.60999" stroke="#ffffff" fill="none"/>
  </g>
 </g>
</svg>